<svg width="48" height="48" viewBox="0 0 48 48" fill="none" xmlns="http://www.w3.org/2000/svg">
<path d="M9.50001 46C8.26668 46 7.20001 45.55 6.30001 44.65C5.40001 43.75 4.95001 42.6667 4.95001 41.4V15.9C4.95001 14.6333 5.40001 13.55 6.30001 12.65C7.20001 11.75 8.26668 11.3 9.50001 11.3H14.1C14.1 8.6 15.025 6.28333 16.875 4.35C18.725 2.41666 21.0167 1.45 23.75 1.45C26.4833 1.45 28.8583 2.41666 30.875 4.35C32.8917 6.28333 33.9 8.6 33.9 11.3H38.5C39.7667 11.3 40.85 11.75 41.75 12.65C42.65 13.55 43.1 14.6333 43.1 15.9V41.4C43.1 42.6667 42.65 43.75 41.75 44.65C40.85 45.55 39.7667 46 38.5 46H9.50001ZM9.50001 41.4H38.5V15.9H9.50001V41.4ZM24 28.3C26.7333 28.3 29.1083 27.3 31.125 25.3C33.1417 23.3 34.15 20.9167 34.15 18.15H29.6C29.6 19.75 29.0583 21.0833 27.975 22.15C26.8917 23.2167 25.5667 23.75 24 23.75C22.4333 23.75 21.1083 23.2083 20.025 22.125C18.9417 21.0417 18.4 19.7167 18.4 18.15H13.85C13.85 20.9167 14.8583 23.3 16.875 25.3C18.8917 27.3 21.2667 28.3 24 28.3V28.3ZM18.65 11.3H29.35C29.35 9.73333 28.85 8.46666 27.85 7.5C26.85 6.53333 25.5667 6.05 24 6.05C22.4333 6.05 21.15 6.54166 20.15 7.525C19.15 8.50833 18.65 9.76666 18.65 11.3ZM9.50001 41.4V15.9V41.4Z" fill="white"/>
</svg>
